<svg xmlns="http://www.w3.org/2000/svg" width="19.318" height="18.939" viewBox="0 0 25.318 18.939">
  <path id="e-learning_1_" data-name="e-learning (1)" d="M19.318,15.783V4.735A2.391,2.391,0,0,0,16.9,2.368h-.8a2.352,2.352,0,0,0-.96-1.889A2.454,2.454,0,0,0,13.02.092L10.606.769a2.412,2.412,0,0,0-.947.515A2.412,2.412,0,0,0,8.712.769L6.3.092A2.453,2.453,0,0,0,4.18.478a2.352,2.352,0,0,0-.961,1.89h-.8A2.391,2.391,0,0,0,0,4.735V15.783H8.854v1.578H5.634V18.94h8.049V17.362h-3.22V15.783ZM10.464,3.045a.792.792,0,0,1,.584-.758l2.415-.676a.832.832,0,0,1,.221-.032.8.8,0,0,1,.8.789V7.3L10.464,8.424ZM4.829,2.368a.784.784,0,0,1,.321-.629.818.818,0,0,1,.706-.128l2.415.676a.792.792,0,0,1,.584.758V8.424L4.829,7.3ZM1.61,4.735a.8.8,0,0,1,.8-.789h.8V8.487l6.439,1.8,6.439-1.8V3.946h.8a.8.8,0,0,1,.8.789v9.47H1.61Z" transform="translate(3 -0.001)" fill="#9aa6ac"/>
</svg>
